<svg xmlns="http://www.w3.org/2000/svg" width="1920" height="1200" viewBox="0 0 1920 1200" font-family="Inter, 'Segoe UI', 'Helvetica Neue', 'Liberation Sans', Arial, sans-serif">
<defs><pattern id="grid" width="40" height="40" patternUnits="userSpaceOnUse"><circle cx="1" cy="1" r="1" fill="#22324f"/></pattern></defs>
<rect x="0" y="0" width="1920" height="1200" rx="0" fill="#0d1628" opacity="1" />
<rect x="0" y="0" width="1920" height="1200" rx="0" fill="url(#grid)" opacity="1" />
<rect x="40" y="38" width="40" height="40" rx="10" fill="#9b8cff" opacity="1" />
<rect x="50" y="50" width="20" height="16" rx="4" fill="#0d1628" opacity="1" />
<circle cx="56" cy="58" r="2.5" fill="#9b8cff"/><circle cx="64" cy="58" r="2.5" fill="#9b8cff"/>
<text x="96" y="66" font-size="26" fill="#e8eef8" font-weight="800" text-anchor="start" letter-spacing="1" opacity="1">AI SOFTWARE DEVELOPMENT WORKSPACE</text>
<text x="720" y="66" font-size="16" fill="#8597b4" font-weight="500" text-anchor="start" letter-spacing="0" opacity="1">1 Human CEO  ·  5 AI Agents</text>
<line x1="1356" y1="240" x2="1016" y2="240" stroke="#5b8cff" stroke-width="2.5" stroke-dasharray="2 7" stroke-linecap="round"/>
<path d="M1024 234 L1016 240 L1024 246" stroke="#5b8cff" stroke-width="2.5" fill="none" stroke-linecap="round" stroke-linejoin="round"/>
<text x="1185.0" y="228" font-size="11" fill="#5b8cff" font-weight="700" text-anchor="middle" letter-spacing="2" opacity="1">SUPERVISES</text>
<line x1="1016" y1="300" x2="1352" y2="300" stroke="#9b8cff" stroke-width="2.5" stroke-dasharray="2 7" stroke-linecap="round"/>
<path d="M1346 294 L1354 300 L1346 306" stroke="#9b8cff" stroke-width="2.5" fill="none" stroke-linecap="round" stroke-linejoin="round"/>
<text x="1185.0" y="324" font-size="11" fill="#9b8cff" font-weight="700" text-anchor="middle" letter-spacing="2" opacity="1">REPORTS</text>
<line x1="670.0" y1="420" x2="670.0" y2="466" stroke="#9b8cff" stroke-width="2.5"/>
<line x1="188.5" y1="466" x2="1151.5" y2="466" stroke="#3a5078" stroke-width="2.5" stroke-linecap="round"/>
<circle cx="670.0" cy="466" r="5" fill="#9b8cff"/>
<line x1="188.5" y1="466" x2="188.5" y2="514" stroke="#3a5078" stroke-width="2.5"/>
<path d="M182.5 508 L188.5 516 L194.5 508" stroke="#38bdf8" stroke-width="2.5" fill="none" stroke-linecap="round" stroke-linejoin="round"/>
<line x1="509.5" y1="466" x2="509.5" y2="514" stroke="#3a5078" stroke-width="2.5"/>
<path d="M503.5 508 L509.5 516 L515.5 508" stroke="#34d399" stroke-width="2.5" fill="none" stroke-linecap="round" stroke-linejoin="round"/>
<line x1="830.5" y1="466" x2="830.5" y2="514" stroke="#3a5078" stroke-width="2.5"/>
<path d="M824.5 508 L830.5 516 L836.5 508" stroke="#fbbf24" stroke-width="2.5" fill="none" stroke-linecap="round" stroke-linejoin="round"/>
<line x1="1151.5" y1="466" x2="1151.5" y2="514" stroke="#3a5078" stroke-width="2.5"/>
<path d="M1145.5 508 L1151.5 516 L1157.5 508" stroke="#f472b6" stroke-width="2.5" fill="none" stroke-linecap="round" stroke-linejoin="round"/>
<text x="684.0" y="452" font-size="11" fill="#8597b4" font-weight="700" text-anchor="start" letter-spacing="2" opacity="1">ASSIGNS &amp; COORDINATES</text>
<rect x="330" y="120" width="680" height="300" rx="18" fill="#15223a" stroke="#9b8cff" stroke-width="1.5" opacity="1" />
<rect x="330" y="120" width="680" height="5" rx="2" fill="#9b8cff" opacity="1" />
<g transform="translate(348 190) scale(1.0)">
<ellipse cx="115" cy="104" rx="105" ry="7" fill="#9b8cff" opacity="0.10"/>
<line x1="58" y1="8" x2="58" y2="20" stroke="#9b8cff" stroke-width="3" stroke-linecap="round"/>
<circle cx="58" cy="7" r="5" fill="#9b8cff"/>
<rect x="32" y="20" width="52" height="40" rx="12" fill="#dfe7f3" opacity="1" />
<rect x="39" y="29" width="38" height="20" rx="8" fill="#0d1628" opacity="1" />
<circle cx="51" cy="39" r="4" fill="#9b8cff"/><circle cx="65" cy="39" r="4" fill="#9b8cff"/>
<rect x="27" y="33" width="6" height="14" rx="3" fill="#b9c5d8" opacity="1" />
<rect x="83" y="33" width="6" height="14" rx="3" fill="#b9c5d8" opacity="1" />
<path d="M34 98 v-24 a12 12 0 0 1 12 -12 h24 a12 12 0 0 1 12 12 v24 z" fill="#9b8cff"/>
<rect x="50" y="72" width="16" height="8" rx="3" fill="#0d1628" opacity="0.35" />
<path d="M80 80 q14 2 26 4" stroke="#9b8cff" stroke-width="7" stroke-linecap="round" fill="none"/>
<rect x="18" y="92" width="196" height="8" rx="4" fill="#2f4266" opacity="1" />
<rect x="122" y="26" width="88" height="56" rx="7" fill="#2a3c5e" opacity="1" />
<rect x="128" y="32" width="76" height="44" rx="4" fill="#0d1628" opacity="1" />
<rect x="135" y="40" width="34" height="4" rx="2" fill="#9b8cff" opacity="1" />
<rect x="135" y="49" width="54" height="4" rx="2" fill="#3a5078" opacity="1" />
<rect x="135" y="58" width="44" height="4" rx="2" fill="#3a5078" opacity="1" />
<rect x="135" y="67" width="24" height="4" rx="2" fill="#9b8cff" opacity="0.6" />
<rect x="160" y="82" width="12" height="10" rx="0" fill="#2a3c5e" opacity="1" />
<rect x="102" y="86" width="36" height="6" rx="3" fill="#3a5078" opacity="1" />
</g>
<text x="600" y="164" font-size="14" fill="#9b8cff" font-weight="700" text-anchor="start" letter-spacing="1.6" opacity="1">01 · TEAM LEAD / ORCHESTRATOR</text>
<rect x="600" y="178" width="87.12" height="24" rx="12" fill="#34d399" opacity="0.16" />
<circle cx="613" cy="190" r="4" fill="#34d399"/>
<text x="623" y="194.5" font-size="12" fill="#34d399" font-weight="700" text-anchor="start" letter-spacing="0.8" opacity="1">WORKING</text>
<text x="600" y="236" font-size="11" fill="#8597b4" font-weight="700" text-anchor="start" letter-spacing="2" opacity="1">MAIN TASK</text>
<text x="600" y="274" font-size="34" fill="#e8eef8" font-weight="800" text-anchor="start" letter-spacing="0.5" opacity="1">MANAGE</text>
<text x="600" y="312" font-size="34" fill="#e8eef8" font-weight="800" text-anchor="start" letter-spacing="0.5" opacity="1">PROJECT</text>
<text x="810" y="236" font-size="11" fill="#8597b4" font-weight="700" text-anchor="start" letter-spacing="2" opacity="1">SUB-TASKS</text>
<rect x="810" y="252" width="18" height="18" rx="5" fill="#9b8cff" opacity="1" />
<path d="M814 261 l4 4 l7 -8" stroke="#0d1628" stroke-width="2.4" fill="none" stroke-linecap="round" stroke-linejoin="round"/>
<text x="840" y="266" font-size="16" fill="#8597b4" font-weight="400" text-anchor="start" letter-spacing="0" opacity="1">Plan Work</text>
<rect x="810" y="282" width="18" height="18" rx="5" fill="#9b8cff" opacity="1" />
<path d="M814 291 l4 4 l7 -8" stroke="#0d1628" stroke-width="2.4" fill="none" stroke-linecap="round" stroke-linejoin="round"/>
<text x="840" y="296" font-size="16" fill="#8597b4" font-weight="400" text-anchor="start" letter-spacing="0" opacity="1">Assign Agents</text>
<rect x="811" y="313" width="16" height="16" rx="5" fill="none" stroke="#9b8cff" stroke-width="2" opacity="1" />
<rect x="816" y="318" width="6" height="6" rx="2" fill="#9b8cff" opacity="1" />
<text x="840" y="326" font-size="16" fill="#e8eef8" font-weight="600" text-anchor="start" letter-spacing="0" opacity="1">Coordinate Results</text>
<text x="354" y="398" font-size="13" fill="#8597b4" font-weight="400" text-anchor="start" letter-spacing="0" opacity="1">Coordinates the four specialist agents</text>
<rect x="40" y="520" width="297" height="420" rx="18" fill="#15223a" stroke="#26385a" stroke-width="1" opacity="1" />
<rect x="40" y="520" width="297" height="5" rx="2" fill="#38bdf8" opacity="1" />
<g transform="translate(73.5 542) scale(1.0)">
<ellipse cx="115" cy="104" rx="105" ry="7" fill="#38bdf8" opacity="0.10"/>
<line x1="58" y1="8" x2="58" y2="20" stroke="#38bdf8" stroke-width="3" stroke-linecap="round"/>
<circle cx="58" cy="7" r="5" fill="#38bdf8"/>
<rect x="32" y="20" width="52" height="40" rx="12" fill="#dfe7f3" opacity="1" />
<rect x="39" y="29" width="38" height="20" rx="8" fill="#0d1628" opacity="1" />
<circle cx="51" cy="39" r="4" fill="#38bdf8"/><circle cx="65" cy="39" r="4" fill="#38bdf8"/>
<rect x="27" y="33" width="6" height="14" rx="3" fill="#b9c5d8" opacity="1" />
<rect x="83" y="33" width="6" height="14" rx="3" fill="#b9c5d8" opacity="1" />
<path d="M34 98 v-24 a12 12 0 0 1 12 -12 h24 a12 12 0 0 1 12 12 v24 z" fill="#38bdf8"/>
<rect x="50" y="72" width="16" height="8" rx="3" fill="#0d1628" opacity="0.35" />
<path d="M80 80 q14 2 26 4" stroke="#38bdf8" stroke-width="7" stroke-linecap="round" fill="none"/>
<rect x="18" y="92" width="196" height="8" rx="4" fill="#2f4266" opacity="1" />
<rect x="122" y="26" width="88" height="56" rx="7" fill="#2a3c5e" opacity="1" />
<rect x="128" y="32" width="76" height="44" rx="4" fill="#0d1628" opacity="1" />
<rect x="135" y="40" width="34" height="4" rx="2" fill="#38bdf8" opacity="1" />
<rect x="135" y="49" width="54" height="4" rx="2" fill="#3a5078" opacity="1" />
<rect x="135" y="58" width="44" height="4" rx="2" fill="#3a5078" opacity="1" />
<rect x="135" y="67" width="24" height="4" rx="2" fill="#38bdf8" opacity="0.6" />
<rect x="160" y="82" width="12" height="10" rx="0" fill="#2a3c5e" opacity="1" />
<rect x="102" y="86" width="36" height="6" rx="3" fill="#3a5078" opacity="1" />
</g>
<text x="64" y="672" font-size="14" fill="#38bdf8" font-weight="700" text-anchor="start" letter-spacing="1.6" opacity="1">02 · ARCHITECT</text>
<rect x="225.88" y="655" width="87.12" height="24" rx="12" fill="#34d399" opacity="0.16" />
<circle cx="238.88" cy="667" r="4" fill="#34d399"/>
<text x="248.88" y="671.5" font-size="12" fill="#34d399" font-weight="700" text-anchor="start" letter-spacing="0.8" opacity="1">WORKING</text>
<line x1="64" y1="686" x2="313" y2="686" stroke="#26385a"/>
<text x="64" y="712" font-size="11" fill="#8597b4" font-weight="700" text-anchor="start" letter-spacing="2" opacity="1">MAIN TASK</text>
<text x="64" y="750" font-size="34" fill="#e8eef8" font-weight="800" text-anchor="start" letter-spacing="0.5" opacity="1">DESIGN</text>
<text x="64" y="788" font-size="34" fill="#e8eef8" font-weight="800" text-anchor="start" letter-spacing="0.5" opacity="1">SYSTEM</text>
<text x="64" y="834" font-size="11" fill="#8597b4" font-weight="700" text-anchor="start" letter-spacing="2" opacity="1">SUB-TASKS</text>
<rect x="64" y="850" width="18" height="18" rx="5" fill="#38bdf8" opacity="1" />
<path d="M68 859 l4 4 l7 -8" stroke="#0d1628" stroke-width="2.4" fill="none" stroke-linecap="round" stroke-linejoin="round"/>
<text x="94" y="864" font-size="16" fill="#8597b4" font-weight="400" text-anchor="start" letter-spacing="0" opacity="1">Analyze Requirements</text>
<rect x="64" y="880" width="18" height="18" rx="5" fill="#38bdf8" opacity="1" />
<path d="M68 889 l4 4 l7 -8" stroke="#0d1628" stroke-width="2.4" fill="none" stroke-linecap="round" stroke-linejoin="round"/>
<text x="94" y="894" font-size="16" fill="#8597b4" font-weight="400" text-anchor="start" letter-spacing="0" opacity="1">Design Architecture</text>
<rect x="65" y="911" width="16" height="16" rx="5" fill="none" stroke="#38bdf8" stroke-width="2" opacity="1" />
<rect x="70" y="916" width="6" height="6" rx="2" fill="#38bdf8" opacity="1" />
<text x="94" y="924" font-size="16" fill="#e8eef8" font-weight="600" text-anchor="start" letter-spacing="0" opacity="1">Research Solutions</text>
<rect x="361" y="520" width="297" height="420" rx="18" fill="#15223a" stroke="#26385a" stroke-width="1" opacity="1" />
<rect x="361" y="520" width="297" height="5" rx="2" fill="#34d399" opacity="1" />
<g transform="translate(394.5 542) scale(1.0)">
<ellipse cx="115" cy="104" rx="105" ry="7" fill="#34d399" opacity="0.10"/>
<line x1="58" y1="8" x2="58" y2="20" stroke="#34d399" stroke-width="3" stroke-linecap="round"/>
<circle cx="58" cy="7" r="5" fill="#34d399"/>
<rect x="32" y="20" width="52" height="40" rx="12" fill="#dfe7f3" opacity="1" />
<rect x="39" y="29" width="38" height="20" rx="8" fill="#0d1628" opacity="1" />
<circle cx="51" cy="39" r="4" fill="#34d399"/><circle cx="65" cy="39" r="4" fill="#34d399"/>
<rect x="27" y="33" width="6" height="14" rx="3" fill="#b9c5d8" opacity="1" />
<rect x="83" y="33" width="6" height="14" rx="3" fill="#b9c5d8" opacity="1" />
<path d="M34 98 v-24 a12 12 0 0 1 12 -12 h24 a12 12 0 0 1 12 12 v24 z" fill="#34d399"/>
<rect x="50" y="72" width="16" height="8" rx="3" fill="#0d1628" opacity="0.35" />
<path d="M80 80 q14 2 26 4" stroke="#34d399" stroke-width="7" stroke-linecap="round" fill="none"/>
<rect x="18" y="92" width="196" height="8" rx="4" fill="#2f4266" opacity="1" />
<rect x="122" y="26" width="88" height="56" rx="7" fill="#2a3c5e" opacity="1" />
<rect x="128" y="32" width="76" height="44" rx="4" fill="#0d1628" opacity="1" />
<rect x="135" y="40" width="34" height="4" rx="2" fill="#34d399" opacity="1" />
<rect x="135" y="49" width="54" height="4" rx="2" fill="#3a5078" opacity="1" />
<rect x="135" y="58" width="44" height="4" rx="2" fill="#3a5078" opacity="1" />
<rect x="135" y="67" width="24" height="4" rx="2" fill="#34d399" opacity="0.6" />
<rect x="160" y="82" width="12" height="10" rx="0" fill="#2a3c5e" opacity="1" />
<rect x="102" y="86" width="36" height="6" rx="3" fill="#3a5078" opacity="1" />
</g>
<text x="385" y="672" font-size="14" fill="#34d399" font-weight="700" text-anchor="start" letter-spacing="1.6" opacity="1">03 · DEVELOPER</text>
<rect x="546.88" y="655" width="87.12" height="24" rx="12" fill="#34d399" opacity="0.16" />
<circle cx="559.88" cy="667" r="4" fill="#34d399"/>
<text x="569.88" y="671.5" font-size="12" fill="#34d399" font-weight="700" text-anchor="start" letter-spacing="0.8" opacity="1">WORKING</text>
<line x1="385" y1="686" x2="634" y2="686" stroke="#26385a"/>
<text x="385" y="712" font-size="11" fill="#8597b4" font-weight="700" text-anchor="start" letter-spacing="2" opacity="1">MAIN TASK</text>
<text x="385" y="750" font-size="34" fill="#e8eef8" font-weight="800" text-anchor="start" letter-spacing="0.5" opacity="1">BUILD</text>
<text x="385" y="788" font-size="34" fill="#e8eef8" font-weight="800" text-anchor="start" letter-spacing="0.5" opacity="1">SOFTWARE</text>
<text x="385" y="834" font-size="11" fill="#8597b4" font-weight="700" text-anchor="start" letter-spacing="2" opacity="1">SUB-TASKS</text>
<rect x="385" y="850" width="18" height="18" rx="5" fill="#34d399" opacity="1" />
<path d="M389 859 l4 4 l7 -8" stroke="#0d1628" stroke-width="2.4" fill="none" stroke-linecap="round" stroke-linejoin="round"/>
<text x="415" y="864" font-size="16" fill="#8597b4" font-weight="400" text-anchor="start" letter-spacing="0" opacity="1">Write Code</text>
<rect x="386" y="881" width="16" height="16" rx="5" fill="none" stroke="#34d399" stroke-width="2" opacity="1" />
<rect x="391" y="886" width="6" height="6" rx="2" fill="#34d399" opacity="1" />
<text x="415" y="894" font-size="16" fill="#e8eef8" font-weight="600" text-anchor="start" letter-spacing="0" opacity="1">Refactor Code</text>
<rect x="386" y="911" width="16" height="16" rx="5" fill="none" stroke="#5a6c8a" stroke-width="2" opacity="1" />
<text x="415" y="924" font-size="16" fill="#8597b4" font-weight="400" text-anchor="start" letter-spacing="0" opacity="1">Review Code</text>
<rect x="682" y="520" width="297" height="420" rx="18" fill="#15223a" stroke="#26385a" stroke-width="1" opacity="1" />
<rect x="682" y="520" width="297" height="5" rx="2" fill="#fbbf24" opacity="1" />
<g transform="translate(715.5 542) scale(1.0)">
<ellipse cx="115" cy="104" rx="105" ry="7" fill="#fbbf24" opacity="0.10"/>
<line x1="58" y1="8" x2="58" y2="20" stroke="#fbbf24" stroke-width="3" stroke-linecap="round"/>
<circle cx="58" cy="7" r="5" fill="#fbbf24"/>
<rect x="32" y="20" width="52" height="40" rx="12" fill="#dfe7f3" opacity="1" />
<rect x="39" y="29" width="38" height="20" rx="8" fill="#0d1628" opacity="1" />
<circle cx="51" cy="39" r="4" fill="#fbbf24"/><circle cx="65" cy="39" r="4" fill="#fbbf24"/>
<rect x="27" y="33" width="6" height="14" rx="3" fill="#b9c5d8" opacity="1" />
<rect x="83" y="33" width="6" height="14" rx="3" fill="#b9c5d8" opacity="1" />
<path d="M34 98 v-24 a12 12 0 0 1 12 -12 h24 a12 12 0 0 1 12 12 v24 z" fill="#fbbf24"/>
<rect x="50" y="72" width="16" height="8" rx="3" fill="#0d1628" opacity="0.35" />
<path d="M80 80 q14 2 26 4" stroke="#fbbf24" stroke-width="7" stroke-linecap="round" fill="none"/>
<rect x="18" y="92" width="196" height="8" rx="4" fill="#2f4266" opacity="1" />
<rect x="122" y="26" width="88" height="56" rx="7" fill="#2a3c5e" opacity="1" />
<rect x="128" y="32" width="76" height="44" rx="4" fill="#0d1628" opacity="1" />
<rect x="135" y="40" width="34" height="4" rx="2" fill="#fbbf24" opacity="1" />
<rect x="135" y="49" width="54" height="4" rx="2" fill="#3a5078" opacity="1" />
<rect x="135" y="58" width="44" height="4" rx="2" fill="#3a5078" opacity="1" />
<rect x="135" y="67" width="24" height="4" rx="2" fill="#fbbf24" opacity="0.6" />
<rect x="160" y="82" width="12" height="10" rx="0" fill="#2a3c5e" opacity="1" />
<rect x="102" y="86" width="36" height="6" rx="3" fill="#3a5078" opacity="1" />
</g>
<text x="706" y="672" font-size="14" fill="#fbbf24" font-weight="700" text-anchor="start" letter-spacing="1.6" opacity="1">04 · QA / TESTER</text>
<rect x="867.88" y="655" width="87.12" height="24" rx="12" fill="#34d399" opacity="0.16" />
<circle cx="880.88" cy="667" r="4" fill="#34d399"/>
<text x="890.88" y="671.5" font-size="12" fill="#34d399" font-weight="700" text-anchor="start" letter-spacing="0.8" opacity="1">WORKING</text>
<line x1="706" y1="686" x2="955" y2="686" stroke="#26385a"/>
<text x="706" y="712" font-size="11" fill="#8597b4" font-weight="700" text-anchor="start" letter-spacing="2" opacity="1">MAIN TASK</text>
<text x="706" y="750" font-size="34" fill="#e8eef8" font-weight="800" text-anchor="start" letter-spacing="0.5" opacity="1">VALIDATE</text>
<text x="706" y="788" font-size="34" fill="#e8eef8" font-weight="800" text-anchor="start" letter-spacing="0.5" opacity="1">SOFTWARE</text>
<text x="706" y="834" font-size="11" fill="#8597b4" font-weight="700" text-anchor="start" letter-spacing="2" opacity="1">SUB-TASKS</text>
<rect x="706" y="850" width="18" height="18" rx="5" fill="#fbbf24" opacity="1" />
<path d="M710 859 l4 4 l7 -8" stroke="#0d1628" stroke-width="2.4" fill="none" stroke-linecap="round" stroke-linejoin="round"/>
<text x="736" y="864" font-size="16" fill="#8597b4" font-weight="400" text-anchor="start" letter-spacing="0" opacity="1">Create Tests</text>
<rect x="707" y="881" width="16" height="16" rx="5" fill="none" stroke="#fbbf24" stroke-width="2" opacity="1" />
<rect x="712" y="886" width="6" height="6" rx="2" fill="#fbbf24" opacity="1" />
<text x="736" y="894" font-size="16" fill="#e8eef8" font-weight="600" text-anchor="start" letter-spacing="0" opacity="1">Find Bugs</text>
<rect x="707" y="911" width="16" height="16" rx="5" fill="none" stroke="#5a6c8a" stroke-width="2" opacity="1" />
<text x="736" y="924" font-size="16" fill="#8597b4" font-weight="400" text-anchor="start" letter-spacing="0" opacity="1">Verify Fixes</text>
<rect x="1003" y="520" width="297" height="420" rx="18" fill="#15223a" stroke="#26385a" stroke-width="1" opacity="1" />
<rect x="1003" y="520" width="297" height="5" rx="2" fill="#f472b6" opacity="1" />
<g transform="translate(1036.5 542) scale(1.0)">
<ellipse cx="115" cy="104" rx="105" ry="7" fill="#f472b6" opacity="0.10"/>
<line x1="58" y1="8" x2="58" y2="20" stroke="#f472b6" stroke-width="3" stroke-linecap="round"/>
<circle cx="58" cy="7" r="5" fill="#f472b6"/>
<rect x="32" y="20" width="52" height="40" rx="12" fill="#dfe7f3" opacity="1" />
<rect x="39" y="29" width="38" height="20" rx="8" fill="#0d1628" opacity="1" />
<circle cx="51" cy="39" r="4" fill="#f472b6"/><circle cx="65" cy="39" r="4" fill="#f472b6"/>
<rect x="27" y="33" width="6" height="14" rx="3" fill="#b9c5d8" opacity="1" />
<rect x="83" y="33" width="6" height="14" rx="3" fill="#b9c5d8" opacity="1" />
<path d="M34 98 v-24 a12 12 0 0 1 12 -12 h24 a12 12 0 0 1 12 12 v24 z" fill="#f472b6"/>
<rect x="50" y="72" width="16" height="8" rx="3" fill="#0d1628" opacity="0.35" />
<path d="M80 80 q14 2 26 4" stroke="#f472b6" stroke-width="7" stroke-linecap="round" fill="none"/>
<rect x="18" y="92" width="196" height="8" rx="4" fill="#2f4266" opacity="1" />
<rect x="122" y="26" width="88" height="56" rx="7" fill="#2a3c5e" opacity="1" />
<rect x="128" y="32" width="76" height="44" rx="4" fill="#0d1628" opacity="1" />
<rect x="135" y="40" width="34" height="4" rx="2" fill="#f472b6" opacity="1" />
<rect x="135" y="49" width="54" height="4" rx="2" fill="#3a5078" opacity="1" />
<rect x="135" y="58" width="44" height="4" rx="2" fill="#3a5078" opacity="1" />
<rect x="135" y="67" width="24" height="4" rx="2" fill="#f472b6" opacity="0.6" />
<rect x="160" y="82" width="12" height="10" rx="0" fill="#2a3c5e" opacity="1" />
<rect x="102" y="86" width="36" height="6" rx="3" fill="#3a5078" opacity="1" />
</g>
<text x="1027" y="672" font-size="14" fill="#f472b6" font-weight="700" text-anchor="start" letter-spacing="1.6" opacity="1">05 · DEVOPS</text>
<rect x="1188.88" y="655" width="87.12" height="24" rx="12" fill="#fbbf24" opacity="0.16" />
<circle cx="1201.88" cy="667" r="4" fill="#fbbf24"/>
<text x="1211.88" y="671.5" font-size="12" fill="#fbbf24" font-weight="700" text-anchor="start" letter-spacing="0.8" opacity="1">WAITING</text>
<line x1="1027" y1="686" x2="1276" y2="686" stroke="#26385a"/>
<text x="1027" y="712" font-size="11" fill="#8597b4" font-weight="700" text-anchor="start" letter-spacing="2" opacity="1">MAIN TASK</text>
<text x="1027" y="750" font-size="34" fill="#e8eef8" font-weight="800" text-anchor="start" letter-spacing="0.5" opacity="1">DEPLOY &amp;</text>
<text x="1027" y="788" font-size="34" fill="#e8eef8" font-weight="800" text-anchor="start" letter-spacing="0.5" opacity="1">OPERATE</text>
<text x="1027" y="834" font-size="11" fill="#8597b4" font-weight="700" text-anchor="start" letter-spacing="2" opacity="1">SUB-TASKS</text>
<rect x="1027" y="850" width="18" height="18" rx="5" fill="#f472b6" opacity="1" />
<path d="M1031 859 l4 4 l7 -8" stroke="#0d1628" stroke-width="2.4" fill="none" stroke-linecap="round" stroke-linejoin="round"/>
<text x="1057" y="864" font-size="16" fill="#8597b4" font-weight="400" text-anchor="start" letter-spacing="0" opacity="1">Build</text>
<rect x="1028" y="881" width="16" height="16" rx="5" fill="none" stroke="#5a6c8a" stroke-width="2" opacity="1" />
<text x="1057" y="894" font-size="16" fill="#8597b4" font-weight="400" text-anchor="start" letter-spacing="0" opacity="1">Deploy</text>
<rect x="1028" y="911" width="16" height="16" rx="5" fill="none" stroke="#5a6c8a" stroke-width="2" opacity="1" />
<text x="1057" y="924" font-size="16" fill="#8597b4" font-weight="400" text-anchor="start" letter-spacing="0" opacity="1">Monitor</text>
<rect x="333" y="582" width="32" height="28" rx="14" fill="#0d1628" opacity="1" />
<line x1="340" y1="596" x2="357" y2="596" stroke="#8597b4" stroke-width="2.5"/>
<path d="M351 590 L359 596 L351 602" stroke="#8597b4" stroke-width="2.5" fill="none" stroke-linecap="round" stroke-linejoin="round"/>
<rect x="654" y="582" width="32" height="28" rx="14" fill="#0d1628" opacity="1" />
<line x1="661" y1="596" x2="678" y2="596" stroke="#8597b4" stroke-width="2.5"/>
<path d="M672 590 L680 596 L672 602" stroke="#8597b4" stroke-width="2.5" fill="none" stroke-linecap="round" stroke-linejoin="round"/>
<rect x="975" y="582" width="32" height="28" rx="14" fill="#0d1628" opacity="1" />
<line x1="982" y1="596" x2="999" y2="596" stroke="#8597b4" stroke-width="2.5"/>
<path d="M993 590 L1001 596 L993 602" stroke="#8597b4" stroke-width="2.5" fill="none" stroke-linecap="round" stroke-linejoin="round"/>
<rect x="1354" y="24" width="532" height="922" rx="24" fill="#5b8cff" opacity="0.08" />
<rect x="1360" y="30" width="520" height="910" rx="20" fill="#172747" stroke="#5b8cff" stroke-width="2" opacity="1" />
<circle cx="1418" cy="88" r="34" fill="#5b8cff" opacity="0.18"/>
<circle cx="1418" cy="80" r="12.24" fill="#f1d3b8"/>
<path d="M1405.76 74 a12.24 12.24 0 0 1 24.48 0 q-12.24 -6 -24.48 0z" fill="#2a2f45"/>
<path d="M1396.92 114.52 a21.08 18.700000000000003 0 0 1 42.16 0 z" fill="#5b8cff"/>
<path d="M1414 98 l4 10 l4 -10 z" fill="#e8eef8"/>
<text x="1468" y="78" font-size="13" fill="#5b8cff" font-weight="700" text-anchor="start" letter-spacing="2" opacity="1">HUMAN CEO</text>
<text x="1468" y="108" font-size="28" fill="#e8eef8" font-weight="800" text-anchor="start" letter-spacing="0.5" opacity="1">CEO DASHBOARD</text>
<line x1="1384" y1="142" x2="1856" y2="142" stroke="#26385a"/>
<text x="1384" y="176" font-size="11" fill="#8597b4" font-weight="700" text-anchor="start" letter-spacing="2" opacity="1">PROJECT</text>
<text x="1384" y="202" font-size="20" fill="#e8eef8" font-weight="700" text-anchor="start" letter-spacing="0" opacity="1">Software Project</text>
<text x="1856" y="176" font-size="11" fill="#8597b4" font-weight="700" text-anchor="end" letter-spacing="2" opacity="1">STATUS</text>
<rect x="1774" y="186" width="82" height="24" rx="12" fill="#34d399" opacity="0.16" />
<circle cx="1787" cy="198" r="4" fill="#34d399"/>
<text x="1797" y="202.5" font-size="12" fill="#34d399" font-weight="700" text-anchor="start" letter-spacing="0.8" opacity="1">ACTIVE</text>
<rect x="1384" y="236" width="472" height="96" rx="14" fill="#1b2a45" opacity="1" />
<text x="1404" y="266" font-size="11" fill="#8597b4" font-weight="700" text-anchor="start" letter-spacing="2" opacity="1">PROJECT PROGRESS</text>
<text x="1836" y="282" font-size="44" fill="#e8eef8" font-weight="800" text-anchor="end" letter-spacing="0" opacity="1">72%</text>
<rect x="1404" y="300" width="432" height="12" rx="6" fill="#2a3c5e" opacity="1" />
<rect x="1404" y="300" width="311.03999999999996" height="12" rx="6" fill="#5b8cff" opacity="1" />
<rect x="1384.0" y="372" width="230.0" height="76" rx="14" fill="#1b2a45" opacity="1" />
<rect x="1384.0" y="388" width="4" height="44" rx="2" fill="#5b8cff" opacity="1" />
<text x="1402.0" y="402" font-size="11" fill="#8597b4" font-weight="700" text-anchor="start" letter-spacing="2" opacity="1">CURRENT GOAL</text>
<text x="1402.0" y="424" font-size="17" fill="#e8eef8" font-weight="700" text-anchor="start" letter-spacing="0" opacity="1">Complete</text>
<text x="1402.0" y="442" font-size="17" fill="#e8eef8" font-weight="700" text-anchor="start" letter-spacing="0" opacity="1">Authentication</text>
<rect x="1626.0" y="372" width="230.0" height="76" rx="14" fill="#1b2a45" opacity="1" />
<rect x="1626.0" y="388" width="4" height="44" rx="2" fill="#fbbf24" opacity="1" />
<text x="1644.0" y="402" font-size="11" fill="#8597b4" font-weight="700" text-anchor="start" letter-spacing="2" opacity="1">ACTIVE TASK</text>
<text x="1644.0" y="430" font-size="17" fill="#e8eef8" font-weight="700" text-anchor="start" letter-spacing="0" opacity="1">QA Testing</text>
<rect x="1384" y="488" width="472" height="72" rx="14" fill="#1b2a45" opacity="1" />
<text x="1404" y="516" font-size="11" fill="#8597b4" font-weight="700" text-anchor="start" letter-spacing="2" opacity="1">AGENT STATUS</text>
<text x="1404" y="544" font-size="17" fill="#e8eef8" font-weight="700" text-anchor="start" letter-spacing="0" opacity="1">4 Working / 1 Waiting</text>
<circle cx="1712" cy="526" r="10" fill="#9b8cff"/>
<circle cx="1742" cy="526" r="10" fill="#38bdf8"/>
<circle cx="1772" cy="526" r="10" fill="#34d399"/>
<circle cx="1802" cy="526" r="10" fill="#fbbf24"/>
<circle cx="1832" cy="526" r="9" fill="none" stroke="#f472b6" stroke-width="2.5" stroke-dasharray="4 3"/>
<rect x="1384.0" y="600" width="230.0" height="92" rx="14" fill="#fbbf24" opacity="0.12" />
<rect x="1384.0" y="600" width="230.0" height="92" rx="14" fill="none" stroke="#fbbf24" stroke-width="1.5" opacity="0.7" />
<text x="1402.0" y="630" font-size="11" fill="#fbbf24" font-weight="700" text-anchor="start" letter-spacing="2" opacity="1">APPROVAL NEEDED</text>
<text x="1402.0" y="676" font-size="40" fill="#e8eef8" font-weight="800" text-anchor="start" letter-spacing="0" opacity="1">2</text>
<text x="1596.0" y="674" font-size="14" fill="#fbbf24" font-weight="700" text-anchor="end" letter-spacing="0" opacity="1">Review</text>
<rect x="1626.0" y="600" width="230.0" height="92" rx="14" fill="#f87171" opacity="0.12" />
<rect x="1626.0" y="600" width="230.0" height="92" rx="14" fill="none" stroke="#f87171" stroke-width="1.5" opacity="0.7" />
<text x="1644.0" y="630" font-size="11" fill="#f87171" font-weight="700" text-anchor="start" letter-spacing="2" opacity="1">BLOCKERS</text>
<text x="1644.0" y="676" font-size="40" fill="#e8eef8" font-weight="800" text-anchor="start" letter-spacing="0" opacity="1">1</text>
<text x="1838.0" y="674" font-size="14" fill="#f87171" font-weight="700" text-anchor="end" letter-spacing="0" opacity="1">Resolve</text>
<rect x="1384" y="732" width="472" height="56" rx="14" fill="#1b2a45" opacity="1" />
<circle cx="1412" cy="760" r="12" fill="#34d399"/>
<path d="M1406 760 l4 4 l7 -8" stroke="#0d1628" stroke-width="2.4" fill="none" stroke-linecap="round" stroke-linejoin="round"/>
<text x="1436" y="756" font-size="11" fill="#8597b4" font-weight="700" text-anchor="start" letter-spacing="2" opacity="1">RECENT RESULT</text>
<text x="1436" y="776" font-size="16" fill="#e8eef8" font-weight="700" text-anchor="start" letter-spacing="0" opacity="1">API Completed</text>
<rect x="1384" y="826" width="472" height="64" rx="14" fill="#5b8cff" opacity="1" />
<text x="1404" y="851" font-size="11" fill="#dbe6ff" font-weight="700" text-anchor="start" letter-spacing="2" opacity="1">NEXT ACTION</text>
<text x="1404" y="875" font-size="19" fill="#ffffff" font-weight="800" text-anchor="start" letter-spacing="0" opacity="1">Run Integration Tests</text>
<path d="M1816 858 h22 m-8 -8 l8 8 l-8 8" stroke="#ffffff" stroke-width="3" fill="none" stroke-linecap="round" stroke-linejoin="round"/>
<rect x="40" y="982" width="1840" height="178" rx="18" fill="#15223a" stroke="#26385a" stroke-width="1" opacity="1" />
<text x="64" y="1018" font-size="13" fill="#8597b4" font-weight="700" text-anchor="start" letter-spacing="2.4" opacity="1">DEVELOPMENT WORKFLOW</text>
<rect x="64" y="1044" width="246" height="84" rx="14" fill="#1b2a45" opacity="1" />
<circle cx="102" cy="1086" r="18" fill="#9b8cff" opacity="1"/>
<text x="102" y="1092" font-size="16" fill="#0d1628" font-weight="800" text-anchor="middle" letter-spacing="0" opacity="1">1</text>
<text x="134" y="1084" font-size="24" fill="#e8eef8" font-weight="800" text-anchor="start" letter-spacing="1" opacity="1">PLAN</text>
<text x="134" y="1106" font-size="13" fill="#8597b4" font-weight="600" text-anchor="start" letter-spacing="0" opacity="1">Team Lead · Done</text>
<line x1="322" y1="1086" x2="358" y2="1086" stroke="#8597b4" stroke-width="2.5" stroke-linecap="round"/>
<path d="M352 1080 L360 1086 L352 1092" stroke="#8597b4" stroke-width="2.5" fill="none" stroke-linecap="round" stroke-linejoin="round"/>
<rect x="372" y="1044" width="246" height="84" rx="14" fill="#1b2a45" opacity="1" />
<circle cx="410" cy="1086" r="18" fill="#38bdf8" opacity="1"/>
<text x="410" y="1092" font-size="16" fill="#0d1628" font-weight="800" text-anchor="middle" letter-spacing="0" opacity="1">2</text>
<text x="442" y="1084" font-size="24" fill="#e8eef8" font-weight="800" text-anchor="start" letter-spacing="1" opacity="1">DESIGN</text>
<text x="442" y="1106" font-size="13" fill="#8597b4" font-weight="600" text-anchor="start" letter-spacing="0" opacity="1">Architect · Done</text>
<line x1="630" y1="1086" x2="666" y2="1086" stroke="#8597b4" stroke-width="2.5" stroke-linecap="round"/>
<path d="M660 1080 L668 1086 L660 1092" stroke="#8597b4" stroke-width="2.5" fill="none" stroke-linecap="round" stroke-linejoin="round"/>
<rect x="680" y="1044" width="246" height="84" rx="14" fill="#1b2a45" opacity="1" />
<circle cx="718" cy="1086" r="18" fill="#34d399" opacity="1"/>
<text x="718" y="1092" font-size="16" fill="#0d1628" font-weight="800" text-anchor="middle" letter-spacing="0" opacity="1">3</text>
<text x="750" y="1084" font-size="24" fill="#e8eef8" font-weight="800" text-anchor="start" letter-spacing="1" opacity="1">CODE</text>
<text x="750" y="1106" font-size="13" fill="#8597b4" font-weight="600" text-anchor="start" letter-spacing="0" opacity="1">Developer · Done</text>
<line x1="938" y1="1086" x2="974" y2="1086" stroke="#8597b4" stroke-width="2.5" stroke-linecap="round"/>
<path d="M968 1080 L976 1086 L968 1092" stroke="#8597b4" stroke-width="2.5" fill="none" stroke-linecap="round" stroke-linejoin="round"/>
<rect x="984" y="1040" width="254" height="92" rx="18" fill="#fbbf24" opacity="0.18" />
<rect x="988" y="1044" width="246" height="84" rx="14" fill="#1b2a45" stroke="#fbbf24" stroke-width="2" opacity="1" />
<circle cx="1026" cy="1086" r="18" fill="#fbbf24" opacity="1"/>
<text x="1026" y="1092" font-size="16" fill="#0d1628" font-weight="800" text-anchor="middle" letter-spacing="0" opacity="1">4</text>
<text x="1058" y="1084" font-size="24" fill="#e8eef8" font-weight="800" text-anchor="start" letter-spacing="1" opacity="1">TEST</text>
<text x="1058" y="1106" font-size="13" fill="#fbbf24" font-weight="600" text-anchor="start" letter-spacing="0" opacity="1">QA / Tester · In progress</text>
<line x1="1246" y1="1086" x2="1282" y2="1086" stroke="#8597b4" stroke-width="2.5" stroke-linecap="round"/>
<path d="M1276 1080 L1284 1086 L1276 1092" stroke="#8597b4" stroke-width="2.5" fill="none" stroke-linecap="round" stroke-linejoin="round"/>
<rect x="1296" y="1044" width="246" height="84" rx="14" fill="#1b2a45" opacity="0.6" />
<circle cx="1334" cy="1086" r="18" fill="#f472b6" opacity="0.35"/>
<text x="1334" y="1092" font-size="16" fill="#0d1628" font-weight="800" text-anchor="middle" letter-spacing="0" opacity="1">5</text>
<text x="1366" y="1084" font-size="24" fill="#8597b4" font-weight="800" text-anchor="start" letter-spacing="1" opacity="1">DEPLOY</text>
<text x="1366" y="1106" font-size="13" fill="#8597b4" font-weight="600" text-anchor="start" letter-spacing="0" opacity="1">DevOps · Up next</text>
<line x1="1554" y1="1086" x2="1590" y2="1086" stroke="#8597b4" stroke-width="2.5" stroke-linecap="round"/>
<path d="M1584 1080 L1592 1086 L1584 1092" stroke="#8597b4" stroke-width="2.5" fill="none" stroke-linecap="round" stroke-linejoin="round"/>
<rect x="1604" y="1044" width="246" height="84" rx="14" fill="#1b2a45" opacity="0.6" />
<circle cx="1642" cy="1086" r="18" fill="#f472b6" opacity="0.35"/>
<text x="1642" y="1092" font-size="16" fill="#0d1628" font-weight="800" text-anchor="middle" letter-spacing="0" opacity="1">6</text>
<text x="1674" y="1084" font-size="24" fill="#8597b4" font-weight="800" text-anchor="start" letter-spacing="1" opacity="1">MONITOR</text>
<text x="1674" y="1106" font-size="13" fill="#8597b4" font-weight="600" text-anchor="start" letter-spacing="0" opacity="1">DevOps · Up next</text>
</svg>